HIERARCHY
ROOT Hips
{
	OFFSET 0.00000 0.00000 0.00000
	CHANNELS 6 Xposition Yposition Zposition Zrotation Yrotation Xrotation 
	JOINT LHipJoint
	{
		OFFSET 0 0 0
		CHANNELS 3 Zrotation Yrotation Xrotation
		JOINT LeftHip
		{
			OFFSET 1.58895 -1.83665 0.71753
			CHANNELS 3 Zrotation Yrotation Xrotation
			JOINT LeftKnee
			{
				OFFSET 2.50528 -6.88321 0.00000
				CHANNELS 3 Zrotation Yrotation Xrotation
				JOINT LeftAnkle
				{
					OFFSET 2.63244 -7.23257 0.00000
					CHANNELS 3 Zrotation Yrotation Xrotation
					JOINT LeftToe
					{
						OFFSET 0.23691 -0.65090 1.72750
						CHANNELS 3 Zrotation Yrotation Xrotation
						End Site
						{
							OFFSET 0.00000 -0.00000 0.92561
						}
					}
				}
			}
		}
	}
	JOINT RHipJoint
	{
		OFFSET 0 0 0
		CHANNELS 3 Zrotation Yrotation Xrotation
		JOINT RightHip
		{
			OFFSET -1.51435 -1.83665 0.71753
			CHANNELS 3 Zrotation Yrotation Xrotation
			JOINT RightKnee
			{
				OFFSET -2.54551 -6.99375 0.00000
				CHANNELS 3 Zrotation Yrotation Xrotation
				JOINT RightAnkle
				{
					OFFSET -2.66027 -7.30903 0.00000
					CHANNELS 3 Zrotation Yrotation Xrotation
					JOINT RightToe
					{
						OFFSET -0.22981 -0.63138 2.03959
						CHANNELS 3 Zrotation Yrotation Xrotation
						End Site
						{
							OFFSET -0.00000 -0.00000 1.07060
						}
					}
				}
			}
		}
	}
	JOINT lowerback
	{
		OFFSET 0 0 0
		CHANNELS 3 Zrotation Yrotation Xrotation
		JOINT Chest
		{
			OFFSET -0.02651 1.86275 -0.11152
			CHANNELS 3 Zrotation Yrotation Xrotation
			JOINT Chest2
			{
				OFFSET 0.01019 1.86224 0.04087
				CHANNELS 3 Zrotation Yrotation Xrotation
				JOINT lowerneck
				{
					OFFSET 0 0 0
					CHANNELS 3 Zrotation Yrotation Xrotation
					JOINT Neck
					{
						OFFSET -0.01926 1.80512 0.08867
						CHANNELS 3 Zrotation Yrotation Xrotation
						JOINT Head
						{
							OFFSET 0.05516 1.76451 -0.38475
							CHANNELS 3 Zrotation Yrotation Xrotation
							End Site
							{
								OFFSET 0.01592 1.82587 -0.14001
							}
						}
					}
				}
				JOINT LeftCollar
				{
					OFFSET 0 0 0
					CHANNELS 3 Zrotation Yrotation Xrotation
					JOINT LeftShoulder
					{
						OFFSET 3.47116 1.51376 0.14491
CHANNELS 3 Zrotation Xrotation Yrotation
						JOINT LeftElbow
						{
OFFSET 0 -4.780950 0.000000
CHANNELS 3 Zrotation Xrotation Yrotation
							JOINT LeftWrist
							{
OFFSET 0 -3.586150 -0.000000
CHANNELS 3 Zrotation Xrotation Yrotation
								JOINT lhand
								{
									OFFSET 0 0 0
CHANNELS 3 Zrotation Xrotation Yrotation
									JOINT LFingers
									{
OFFSET 0 -0.659810 0.000000
CHANNELS 3 Zrotation Xrotation Yrotation
										End Site
										{
OFFSET 0 -0.531960 0.000000
										}
									}
								}
								JOINT LThumb
								{
OFFSET 0 0.000000 0.000000
CHANNELS 3 Zrotation Xrotation Yrotation
									End Site
									{
OFFSET 0 -0.540080 0.540080
									}
								}
							}
						}
					}
				}
				JOINT RightCollar
				{
					OFFSET 0 0 0
					CHANNELS 3 Zrotation Yrotation Xrotation
					JOINT RightShoulder
					{
						OFFSET -3.31725 1.61216 0.35156
CHANNELS 3 Zrotation Xrotation Yrotation
						JOINT RightElbow
						{
OFFSET 0 -4.489130 0.000000
CHANNELS 3 Zrotation Xrotation Yrotation
							JOINT RightWrist
							{
OFFSET 0 -3.705100 0.000000
CHANNELS 3 Zrotation Xrotation Yrotation
								JOINT rhand
								{
									OFFSET 0 0 0
CHANNELS 3 Zrotation Xrotation Yrotation
									JOINT RFingers
									{
OFFSET 0 -0.449140 0.000000
CHANNELS 3 Zrotation Xrotation Yrotation
										End Site
										{
OFFSET 0 -0.362110 0.000000
										}
									}
								}
								JOINT RThumb
								{
OFFSET 0 0.000000 0.000000
CHANNELS 3 Zrotation Xrotation Yrotation
									End Site
									{
OFFSET 0 -0.367630 0.367630
									}
								}
							}
						}
					}
				}
			}
		}
	}
}
MOTION
Frames: 9
Frame Time: 0.008333333333333333
-0.235236 18.098739 7.044042 1.007167 -14.276415 0.818247 0.000000 0.000000 0.000000 -15.591628 13.941217 -10.643689 3.409533 11.330174 33.401774 2.129346 -6.239922 -26.342305 8.603217 -16.545478 -54.707535 0.000000 0.000000 0.000000 10.147544 8.106838 -3.802273 -2.312708 -9.489115 27.337698 -1.518668 7.386652 -22.056481 -1.052061 6.522133 -18.307187 0.428377 -8.035452 6.045849 -0.559527 -10.804798 -4.651215 0.622335 -5.328255 -8.458810 -2.686625 1.124796 -27.788603 -10.219098 6.335589 28.530028 -2.519697 0.739064 14.989499 0.000000 0.000000 0.000000 -15.311805 -5.902308 -56.743925 43.076129 -49.790362 20.758896 15.106901 -47.789138 20.544543 0.000000 0.000000 0.000000 -7.125000 0.000000 0.000000 -8.564886 8.954412 -7.210644 0.000000 0.000000 0.000000 -0.294856 24.286480 7.941107 -78.091328 -59.457293 -49.705588 -15.986335 -32.410469 45.287445 0.000000 0.000000 0.000000 7.125000 0.000000 0.000000 38.990063 73.255118 -27.159795
-0.230064 18.093455 7.040370 0.931062 -13.949416 0.857496 0.000000 0.000000 0.000000 -15.502890 13.676239 -10.742205 3.444624 11.382104 33.579787 2.132762 -6.330436 -26.355631 8.609286 -16.549626 -54.728904 0.000000 0.000000 0.000000 10.187514 7.799389 -3.882173 -2.317599 -9.498393 27.367145 -1.524027 7.402127 -22.095949 -1.074959 6.590372 -18.507385 0.434714 -8.035800 6.000424 -0.566729 -10.803789 -4.615267 0.601026 -5.329708 -8.396032 -2.677139 1.076791 -27.924570 -10.285186 6.312027 28.659502 -2.561327 0.709669 15.081374 0.000000 0.000000 0.000000 -15.301787 -5.921817 -56.752755 43.029773 -49.765898 20.723486 15.245067 -47.736647 20.492132 0.000000 0.000000 0.000000 -7.125000 0.000000 0.000000 -8.474438 8.991218 -7.126406 0.000000 0.000000 0.000000 -0.224482 24.237888 7.931385 -78.030054 -59.451635 -49.652801 -15.918730 -32.404856 45.308831 0.000000 0.000000 0.000000 7.125000 0.000000 0.000000 39.114010 73.245548 -27.245336
-0.226829 18.087886 7.035889 0.871333 -13.612846 0.893096 0.000000 0.000000 0.000000 -15.425876 13.402053 -10.845668 3.481666 11.436635 33.767105 2.136903 -6.438901 -26.372431 8.638003 -16.569073 -54.829664 0.000000 0.000000 0.000000 10.220144 7.480357 -3.973042 -2.324234 -9.511112 27.407513 -1.528824 7.377576 -22.132115 -1.101032 6.667119 -18.732890 0.414279 -8.008636 5.940692 -0.629795 -10.772349 -4.566974 0.529091 -5.316977 -8.317511 -2.510302 1.040939 -28.054081 -10.396685 6.244641 28.743118 -2.656101 0.676787 15.154343 0.000000 0.000000 0.000000 -15.173374 -5.902091 -56.888487 43.015362 -49.758318 20.712464 15.312202 -47.755865 20.441021 0.000000 0.000000 0.000000 -7.125000 0.000000 0.000000 -8.429400 9.035113 -7.080213 0.000000 0.000000 0.000000 0.031976 24.167644 7.772840 -77.975380 -59.446529 -49.605710 -15.991008 -32.365027 45.392310 0.000000 0.000000 0.000000 7.125000 0.000000 0.000000 39.247115 73.330416 -27.412760
-0.226104 18.082812 7.030654 0.819113 -13.255038 0.916108 0.000000 0.000000 0.000000 -15.338217 13.147611 -10.941145 3.518121 11.489901 33.950610 2.134982 -6.590696 -26.347047 8.657788 -16.582443 -54.898984 0.000000 0.000000 0.000000 10.264929 7.156529 -4.044308 -2.329777 -9.521644 27.441059 -1.535426 7.332632 -22.181736 -1.123249 6.731970 -18.923673 0.394052 -7.930892 5.872470 -0.806618 -10.680841 -4.487723 0.329185 -5.278938 -8.222571 -2.133915 1.001160 -28.132205 -10.468299 6.050651 28.768268 -2.792577 0.627767 15.181917 0.000000 0.000000 0.000000 -14.842382 -5.824728 -57.193905 43.041751 -49.772286 20.732618 15.366922 -47.849478 20.367967 0.000000 0.000000 0.000000 -7.125000 0.000000 0.000000 -8.391325 9.102668 -7.036048 0.000000 0.000000 0.000000 0.606398 24.158092 7.388906 -78.008047 -59.449530 -49.633854 -16.186513 -32.223468 45.434746 0.000000 0.000000 0.000000 7.125000 0.000000 0.000000 39.148424 73.431446 -27.418380
-0.226095 18.077787 7.025283 0.723778 -12.900345 0.928425 0.000000 0.000000 0.000000 -15.195322 12.919473 -11.015272 3.551555 11.538423 34.118186 2.131114 -6.754072 -26.308784 8.670170 -16.590748 -54.942241 0.000000 0.000000 0.000000 10.367901 6.849208 -4.071808 -2.331116 -9.524085 27.448893 -1.542871 7.323950 -22.236658 -1.120485 6.724001 -18.900323 0.392585 -7.866719 5.843344 -0.944215 -10.603414 -4.427659 0.169406 -5.246526 -8.166755 -1.857067 0.969513 -28.191590 -10.446916 5.877984 28.779745 -2.867158 0.591451 15.191976 0.000000 0.000000 0.000000 -14.571576 -5.779068 -57.418901 43.005782 -49.753259 20.705147 15.530081 -48.018704 20.389848 0.000000 0.000000 0.000000 -7.125000 0.000000 0.000000 -8.287750 9.060993 -6.954167 0.000000 0.000000 0.000000 1.083908 24.238892 7.084612 -78.089296 -59.457071 -49.703839 -16.322077 -32.131720 45.358520 0.000000 0.000000 0.000000 7.125000 0.000000 0.000000 38.814943 73.427465 -27.164138
-0.226106 18.073237 7.020901 0.601644 -12.551256 0.941852 0.000000 0.000000 0.000000 -15.027165 12.698354 -11.068770 3.579478 11.578775 34.257672 2.127612 -6.883899 -26.276201 8.685491 -16.601012 -54.995872 0.000000 0.000000 0.000000 10.503605 6.552241 -4.059065 -2.325336 -9.513099 27.413902 -1.551775 7.326607 -22.302444 -1.104156 6.676496 -18.760501 0.357121 -7.860160 5.848563 -0.925430 -10.596515 -4.436458 0.207468 -5.240394 -8.168782 -1.894743 0.954294 -28.273195 -10.360178 5.853729 28.804833 -2.830459 0.587642 15.213056 0.000000 0.000000 0.000000 -14.568941 -5.748991 -57.421566 42.949329 -49.723392 20.662063 15.769568 -48.164093 20.485074 0.000000 0.000000 0.000000 -7.125000 0.000000 0.000000 -8.138555 8.935577 -6.846926 0.000000 0.000000 0.000000 1.140062 24.374064 7.051461 -78.107562 -59.458801 -49.719563 -16.342670 -32.198749 45.265555 0.000000 0.000000 0.000000 7.125000 0.000000 0.000000 38.561037 73.369489 -26.927686
-0.226040 18.069915 7.017709 0.491373 -12.190933 0.946618 0.000000 0.000000 0.000000 -14.875690 12.462099 -11.078303 3.597011 11.603914 34.344790 2.122425 -6.973053 -26.236245 8.692892 -16.605979 -55.021956 0.000000 0.000000 0.000000 10.626532 6.228196 -4.006511 -2.311161 -9.486074 27.328026 -1.562092 7.293051 -22.379039 -1.114335 6.706121 -18.847587 0.297789 -7.869969 5.840062 -0.864292 -10.611153 -4.471748 0.304284 -5.242160 -8.178969 -2.035121 0.944681 -28.343085 -10.286766 5.888012 28.821593 -2.769410 0.594356 15.230890 0.000000 0.000000 0.000000 -14.644852 -5.690494 -57.360721 42.947656 -49.722471 20.660787 15.884214 -48.150082 20.490225 0.000000 0.000000 0.000000 -7.125000 0.000000 0.000000 -8.065375 8.916514 -6.787224 0.000000 0.000000 0.000000 1.031679 24.533279 7.118491 -78.035272 -59.452094 -49.657328 -16.287814 -32.310183 45.240508 0.000000 0.000000 0.000000 7.125000 0.000000 0.000000 38.556586 73.331734 -26.894760
-0.225147 18.068109 7.016024 0.409465 -11.819180 0.900404 0.000000 0.000000 0.000000 -14.749884 12.229634 -11.006964 3.604404 11.614472 34.381466 2.113878 -7.038514 -26.176592 8.701456 -16.611722 -55.051831 0.000000 0.000000 0.000000 10.717674 5.861197 -3.882588 -2.288723 -9.443129 27.191604 -1.573612 7.234408 -22.464956 -1.145811 6.797021 -19.115450 0.231054 -7.872239 5.838533 -0.858777 -10.622220 -4.544373 0.352368 -5.242730 -8.243488 -2.085217 0.945529 -28.146204 -10.291522 5.899165 28.798922 -2.757245 0.599288 15.178230 0.000000 0.000000 0.000000 -14.644735 -5.524892 -57.287411 42.951726 -49.724628 20.663877 15.856446 -48.043051 20.437551 0.000000 0.000000 0.000000 -7.125000 0.000000 0.000000 -8.080803 8.973404 -6.791152 0.000000 0.000000 0.000000 0.980129 24.843801 7.177581 -77.978148 -59.446786 -49.608091 -16.257905 -32.308112 45.313383 0.000000 0.000000 0.000000 7.125000 0.000000 0.000000 38.769799 73.372249 -27.086747
-0.233507 18.067003 7.017382 0.349336 -11.486925 0.721235 0.000000 0.000000 0.000000 -14.563771 12.203595 -10.795118 3.604781 11.615030 34.383358 2.096170 -7.218540 -26.050855 8.715082 -16.620803 -55.099310 0.000000 0.000000 0.000000 10.852169 5.567196 -3.535896 -2.259066 -9.386027 27.010428 -1.600352 7.156124 -22.661970 -1.143335 6.789774 -19.094163 0.003927 -7.841390 5.875213 -0.896138 -10.607708 -4.629384 0.443193 -5.222428 -8.321967 -1.924348 0.988451 -27.681365 -10.466418 5.914754 28.766695 -2.849356 0.612885 15.078462 0.000000 0.000000 0.000000 -14.569079 -5.193597 -57.185301 42.961692 -49.729930 20.671511 15.831535 -47.929502 20.403745 0.000000 0.000000 0.000000 -7.125000 0.000000 0.000000 -8.095271 9.010789 -6.797467 0.000000 0.000000 0.000000 1.040813 25.311709 7.172599 -77.965268 -59.445620 -49.597019 -16.322098 -32.172003 45.462363 0.000000 0.000000 0.000000 7.125000 0.000000 0.000000 39.076975 73.500315 -27.419101
